<svg xmlns="http://www.w3.org/2000/svg" viewBox="0 0 100 100" fill="none" aria-hidden="true">
  <defs>
    <radialGradient id="pk-graphite" cx="50%" cy="8%" r="95%">
      <stop offset="0%" stop-color="#9AA0A8"/>
      <stop offset="42%" stop-color="#34383D"/>
      <stop offset="100%" stop-color="#0D0E10"/>
    </radialGradient>
    <linearGradient id="pk-metal" x1="0" y1="0" x2="0" y2="1">
      <stop offset="0%" stop-color="#F3F4F6"/>
      <stop offset="52%" stop-color="#D3D7DC"/>
      <stop offset="100%" stop-color="#AEB4BC"/>
    </linearGradient>
  </defs>
  <rect width="100" height="100" rx="24" fill="url(#pk-graphite)"/>
  <!-- MacBook notch -->
  <path d="M34 0 V5 A6 6 0 0 0 40 11 H60 A6 6 0 0 0 66 5 V0 Z" fill="#08090B"/>
  <path d="M34 0.5 V5 A6 6 0 0 0 40 11 H60 A6 6 0 0 0 66 5 V0.5" fill="none" stroke="rgba(255,255,255,0.10)" stroke-width="0.8"/>
  <!-- P monogram: raised brushed-metal on graphite -->
  <g stroke-width="9" stroke-linecap="round" stroke-linejoin="round" fill="none">
    <path d="M40 75 V29 H54 A13 13 0 0 1 54 55 H40" transform="translate(0,1.4)" stroke="#000000" stroke-opacity="0.32"/>
    <path d="M40 75 V29 H54 A13 13 0 0 1 54 55 H40" stroke="url(#pk-metal)"/>
    <path d="M40 75 V29 H54 A13 13 0 0 1 54 55 H40" transform="translate(0,-0.5)" stroke="#FFFFFF" stroke-opacity="0.18"/>
  </g>
  <rect x="1" y="1" width="98" height="98" rx="23" fill="none" stroke="rgba(255,255,255,0.10)" stroke-width="1.4"/>
</svg>
